<?xml version="1.0" standalone="no"?><!DOCTYPE svg PUBLIC "-//W3C//DTD SVG 1.1//EN" "http://www.w3.org/Graphics/SVG/1.1/DTD/svg11.dtd"><svg t="1764922243077" class="icon" viewBox="0 0 1024 1024" version="1.1" xmlns="http://www.w3.org/2000/svg" p-id="2586" xmlns:xlink="http://www.w3.org/1999/xlink" width="200" height="200"><path d="M170.666667 284.444444l85.333333 654.222223c0 47.132444 114.602667 85.333333 256 85.333333s256-38.200889 256-85.333333l85.333333-654.222223H170.666667z" fill="#8899A6" p-id="2587"></path><path d="M199.111111 284.444444l85.333333 644.096c0 35.356444 101.888 64 227.555556 64s227.555556-28.643556 227.555556-64L824.888889 284.444444H199.111111z" fill="#D3A471" p-id="2588"></path><path d="M789.504 555.747556L824.888889 284.444444H199.111111l35.384889 271.303112z" fill="#CCD6DD" p-id="2589"></path><path d="M739.043556 555.747556L768 284.444444H256l28.956444 271.303112z" fill="#E1E8ED" p-id="2590"></path><path d="M234.268444 553.386667a277.731556 66.986667 0 1 0 555.463112 0 277.731556 66.986667 0 1 0-555.463112 0Z" fill="#ECD2A7" p-id="2591"></path><path d="M621.112889 544.540444l46.279111-513.905777-84.992-7.68-46.961778 521.585777z" fill="#AA8DD8" p-id="2592"></path><path d="M162.019556 284.529778c-5.091556 29.866667-4.608 67.214222 11.747555 71.879111 13.084444 3.754667 31.402667-2.56 46.620445 5.034667 15.217778 7.594667 27.392 27.448889 42.837333 32.739555 29.582222 10.126222 47.729778-8.504889 65.507555-6.286222 33.792 4.209778 48.952889 36.522667 76.856889 39.054222 27.875556 2.531556 50.659556-20.992 76.828445-20.167111 27.989333 0.910222 26.624 21.816889 70.542222 22.670222 43.121778 0.824889 50.232889-27.278222 75.576889-28.984889 25.344-1.678222 41.841778 15.559111 65.507555 11.349334 23.665778-4.238222 33.479111-28.928 52.906667-34.019556 19.427556-5.063111 29.724444 9.272889 46.620445 5.034667 16.896-4.209778 25.799111-33.28 35.953777-40.903111 10.126222-7.594667 44.686222 35.84 36.323556-47.303111-15.246222-151.552-544.142222-16.014222-593.976889-19.370667-49.863111-3.384889-99.299556-52.48-109.852444 9.272889z" fill="#55ACEE" p-id="2593"></path><path d="M160.711111 284.757333a351.288889 108.088889 0 1 0 702.577778 0 351.288889 108.088889 0 1 0-702.577778 0Z" fill="#88C9F9" p-id="2594"></path><path d="M667.392 30.634667L582.4 22.983111l-24.263111 269.482667c-0.028444 0.199111-0.170667 0.369778-0.170667 0.540444 0 7.850667 19.114667 14.222222 42.666667 14.222222s42.666667-6.371556 42.666667-14.222222V292.977778h0.483555l23.608889-262.343111z" fill="#9266CC" p-id="2595"></path><path d="M667.392 30.634667c-0.711111 7.822222-20.309333 12.458667-43.776 10.325333-23.466667-2.104889-41.927111-10.183111-41.216-18.005333 0.711111-7.822222 20.309333-12.458667 43.776-10.325334s41.927111 10.183111 41.216 18.005334z" fill="#553788" p-id="2596"></path><path d="M535.153778 545.848889a42.666667 14.222222 0 1 0 85.333333 0 42.666667 14.222222 0 1 0-85.333333 0Z" fill="#AA8DD8" p-id="2597"></path><path d="M321.28 840.647111c-9.301333 9.301333-25.912889 7.822222-37.063111-3.328-11.150222-11.150222-12.657778-27.761778-3.328-37.063111 9.301333-9.301333 25.912889-7.822222 37.063111 3.328 11.150222 11.150222 12.629333 27.733333 3.328 37.063111z m83.569778 123.676445c-2.531556 9.984-14.222222 15.616-26.083556 12.629333-11.861333-3.015111-19.456-13.539556-16.924444-23.523556 2.531556-9.984 14.222222-15.644444 26.083555-12.629333 11.889778 3.015111 19.456 13.539556 16.924445 23.523556z m101.006222-187.477334c-2.673778 10.524444-14.449778 16.583111-26.339556 13.596445-11.861333-3.015111-19.342222-13.966222-16.668444-24.490667 2.673778-10.524444 14.449778-16.583111 26.339556-13.596444 11.861333 3.015111 19.342222 13.994667 16.668444 24.490666z" fill="#292F33" p-id="2598"></path><path d="M459.264 961.479111a30.464 25.742222 0 1 0 60.928 0 30.464 25.742222 0 1 0-60.928 0Z" fill="#292F33" p-id="2599"></path><path d="M715.320889 756.110222c2.901333 12.8-5.859556 25.713778-19.569778 28.814222-13.710222 3.128889-27.192889-4.721778-30.122667-17.521777-2.901333-12.8 5.859556-25.685333 19.569778-28.814223 13.710222-3.128889 27.192889 4.721778 30.122667 17.521778z m-85.134222 127.914667c-5.233778 15.957333-21.333333 25.002667-35.982223 20.195555-14.620444-4.807111-22.243556-21.617778-17.009777-37.603555s21.333333-25.002667 35.982222-20.195556c14.620444 4.807111 22.243556 21.617778 17.009778 37.603556z m-145.806223-13.624889c4.721778 15.104-3.242667 31.032889-17.806222 35.584-14.563556 4.551111-30.179556-4.010667-34.901333-19.114667-4.721778-15.104 3.242667-31.032889 17.806222-35.584 14.535111-4.551111 30.179556 4.010667 34.901333 19.114667z m67.726223-8.305778c-12.942222 6.769778-28.728889 2.161778-35.242667-10.268444-6.513778-12.458667-1.308444-28.046222 11.662222-34.816 12.942222-6.769778 28.728889-2.190222 35.242667 10.268444 6.513778 12.458667 1.28 28.046222-11.662222 34.816z m48.327111 74.183111c2.332444 14.250667-9.500444 28.046222-26.424889 30.805334-16.924444 2.759111-32.540444-6.542222-34.844445-20.792889-2.332444-14.250667 9.500444-28.046222 26.424889-30.805334 16.924444-2.759111 32.512 6.542222 34.844445 20.792889z m-192.341334-110.506666c-9.984 8.220444-26.908444 4.124444-37.802666-9.130667-10.894222-13.255111-11.605333-30.634667-1.621334-38.855111 9.984-8.220444 26.908444-4.124444 37.802667 9.102222 10.865778 13.283556 11.605333 30.691556 1.621333 38.883556z m268.999112 104.874666c7.139556 11.207111 1.877333 27.335111-11.719112 36.010667-13.624889 8.675556-30.435556 6.599111-37.575111-4.636444-7.139556-11.207111-1.877333-27.335111 11.719111-36.010667 13.596444-8.647111 30.435556-6.599111 37.575112 4.636444z m50.574222-23.153777c8.647111 5.916444 9.102222 20.309333 1.024 32.142222-8.078222 11.861333-21.646222 16.668444-30.321778 10.752-8.647111-5.916444-9.102222-20.309333-1.024-32.142222 8.106667-11.832889 21.674667-16.668444 30.321778-10.752z m-450.958222-184.035556c7.907556-0.426667 14.848 9.528889 15.559111 22.272 0.682667 12.743111-5.148444 23.409778-13.027556 23.836444-7.907556 0.426667-14.848-9.528889-15.559111-22.272s5.148444-23.409778 13.027556-23.836444zM678.257778 822.044444c5.404444 9.272889 1.251556 21.731556-9.272889 27.875556-10.524444 6.144-23.438222 3.612444-28.842667-5.660444-5.404444-9.272889-1.251556-21.731556 9.272889-27.875556 10.524444-6.144 23.438222-3.612444 28.842667 5.660444z m-150.499556 70.200889c7.68 5.233778 9.073778 16.526222 3.128889 25.230223-5.944889 8.704-16.952889 11.491556-24.632889 6.257777-7.68-5.233778-9.073778-16.526222-3.128889-25.230222 5.944889-8.675556 16.981333-11.491556 24.632889-6.257778z m208.327111-65.592889c8.391111 2.218667 12.544 14.023111 9.301334 26.396445-3.271111 12.373333-12.686222 20.622222-21.077334 18.403555-8.391111-2.218667-12.544-14.023111-9.301333-26.396444 3.271111-12.373333 12.686222-20.622222 21.077333-18.403556zM739.555556 771.697778c6.570667 1.735111 9.699556 11.52 6.968888 21.873778-2.730667 10.353778-10.268444 17.351111-16.839111 15.616s-9.699556-11.52-6.968889-21.873778c2.730667-10.353778 10.268444-17.322667 16.839112-15.616z m-36.181334 96.597333c8.533333 7.793778 7.224889 23.096889-2.901333 34.218667-10.154667 11.121778-25.287111 13.824-33.820445 6.030222-8.533333-7.793778-7.224889-23.096889 2.901334-34.218667 10.154667-11.121778 25.287111-13.824 33.820444-6.030222z m-325.859555 19.512889c-6.883556 10.126222-22.784 11.349333-35.527111 2.702222-12.743111-8.647111-17.493333-23.864889-10.609778-34.019555s22.784-11.349333 35.527111-2.702223c12.743111 8.647111 17.493333 23.893333 10.609778 34.019556z m255.573333-99.555556c0.967111 12.999111-10.666667 24.462222-26.026667 25.628445-15.36 1.166222-28.586667-8.448-29.582222-21.418667-0.967111-12.999111 10.666667-24.462222 26.026667-25.628444 15.36-1.166222 28.586667 8.419556 29.582222 21.418666z m-201.614222 142.791112c-7.594667 9.614222-23.552 9.671111-35.640889 0.113777-12.088889-9.528889-15.729778-25.059556-8.135111-34.673777 7.594667-9.614222 23.552-9.671111 35.612444-0.113778 12.088889 9.528889 15.758222 25.059556 8.163556 34.673778z m-96.199111-16.867556c9.699556 12.828444 9.443556 29.411556-0.625778 37.006222-10.040889 7.594667-26.055111 3.356444-35.783111-9.500444s-9.443556-29.411556 0.625778-37.006222c10.040889-7.594667 26.055111-3.356444 35.783111 9.500444z" fill="#292F33" p-id="2600"></path></svg>